# xmcd CD database file
#
# Track frame offsets:
#	150
#	10027
#	22519
#	34093
#	46728
#	59646
#	72301
#	84629
#	96438
#	107302
#	117404
#	129365
#	142819
#
# Disc length: 2068 seconds
#
# Revision: 3
# Processed by: cddbd v1.5.2PL0 Copyright (c) Steve Scherf et al.
# Submitted via: CDex 1.70beta2
#
DISCID=9d08120d
DTITLE=Mel Tillis - Memory Maker
DYEAR=1995
DGENRE=Bluegrass
TTITLE0=I Ain't Never
TTITLE1=Brand New Mister Me
TTITLE2=Stomp Them Grapes
TTITLE3=Commercial Affection
TTITLE4=Midnight Me And The Blues
TTITLE5=Woman In The Back Of My Mind
TTITLE6=Sawmill
TTITLE7=The Arms Of A Fool
TTITLE8=Neon Rose
TTITLE9=Take My Hand (with Sherry Bryce)
TTITLE10=Heaven Every Day
TTITLE11=Memory Maker
TTITLE12=Mental Revenge
EXTD=YEAR: 1995
EXTT0=
EXTT1=
EXTT2=
EXTT3=
EXTT4=
EXTT5=
EXTT6=
EXTT7=
EXTT8=
EXTT9=
EXTT10=
EXTT11=
EXTT12=
PLAYORDER=
